<?xml version="1.0" standalone="no"?><!DOCTYPE svg PUBLIC "-//W3C//DTD SVG 1.1//EN" "http://www.w3.org/Graphics/SVG/1.1/DTD/svg11.dtd"><svg t="1560481703786" class="icon" style="" viewBox="0 0 1024 1024" version="1.1" xmlns="http://www.w3.org/2000/svg" p-id="1737" xmlns:xlink="http://www.w3.org/1999/xlink" width="128" height="128"><defs><style type="text/css"></style></defs><path d="M896 0 128 0C57.28 0 0 57.28 0 128l0 768c0 70.72 57.28 128 128 128l768 0c70.72 0 128-57.28 128-128L1024 128C1024 57.28 966.72 0 896 0zM896 832c0 35.328-28.672 64-64 64L192 896c-35.328 0-64-28.672-64-64L128 192c0-35.328 28.672-64 64-64l640 0c35.328 0 64 28.672 64 64L896 832zM352 448C404.992 448 448 404.992 448 352S404.992 256 352 256 256 299.008 256 352 299.008 448 352 448zM448 704 384 576l-128 192 512 0-128-384L448 704z" p-id="1738" fill="#8a8a8a"></path></svg>